<svg id="Layer_1" enable-background="new 0 0 24 24" viewBox="0 0 24 24" xmlns="http://www.w3.org/2000/svg" xmlns:xlink="http://www.w3.org/1999/xlink"><linearGradient id="lg1"><stop offset="0" stop-color="#fff" stop-opacity=".1"/><stop offset="1" stop-color="#fff" stop-opacity="0"/></linearGradient><linearGradient id="XMLID_2_" gradientUnits="userSpaceOnUse" x1="-3.32" x2="5.106" xlink:href="#lg1" y1="8.12" y2="12.05"/><linearGradient id="lg2"><stop offset="0" stop-opacity="0"/><stop offset="1" stop-opacity=".1"/></linearGradient><linearGradient id="XMLID_3_" gradientUnits="userSpaceOnUse" x1="8.375" x2="18.375" xlink:href="#lg2" y1="12.625" y2="22.625"/><linearGradient id="XMLID_4_" gradientUnits="userSpaceOnUse" x1="13.5" x2="29.5" xlink:href="#lg2" y1="1.5" y2="17.5"/><linearGradient id="SVGID_1_" gradientUnits="userSpaceOnUse" x1="-2.07" x2="26.07" xlink:href="#lg1" y1="5.439" y2="18.561"/><g><g fill="#e83628"><path id="XMLID_1587_" d="m0 1h10l-10 22z"/><path id="XMLID_1585_" d="m13.5 23h4.5l-6-14-4.5 10h4.5z"/><path id="XMLID_1577_" d="m14 1 10 22v-22z"/></g><path id="XMLID_1321_" d="m0 1h10l-10 22z" fill="url(#XMLID_2_)"/><path id="XMLID_1316_" d="m13.5 23h4.5l-6-14-4.5 10h4.5z" fill="url(#XMLID_3_)"/><path id="XMLID_1309_" d="m14 1 10 22v-22z" fill="url(#XMLID_4_)"/><path d="m0 1v22l10-22zm7.5 18h4.5l1.5 4h4.5l-6-14zm6.5-18 10 22v-22z" fill="url(#SVGID_1_)"/></g><g/><g/><g/><g/><g/><g/><g/><g/><g/><g/><g/><g/><g/><g/><g/></svg>