<svg width="61" height="18" viewBox="0 0 61 18" fill="none" xmlns="http://www.w3.org/2000/svg">
<g clip-path="url(#clip0_621_288)">
<path d="M37.8348 14.0622C34.2942 16.6135 29.1624 17.9748 24.744 17.9748C18.5486 17.9748 12.9712 15.7346 8.75167 12.0086C8.42016 11.7156 8.7172 11.3163 9.11501 11.5445C13.6687 14.1348 19.2992 15.6931 25.1152 15.6931C29.0377 15.6931 33.3527 14.8997 37.3203 13.2532C37.9197 13.0043 38.4209 13.6369 37.8348 14.0622Z" fill="#FF9900"/>
<path d="M39.3068 12.4157C38.8559 11.8505 36.3152 12.1486 35.1748 12.2809C34.8273 12.3224 34.7743 12.0268 35.0872 11.8142C37.1108 10.4218 40.4312 10.8237 40.8185 11.2904C41.2057 11.7597 40.7177 15.0138 38.8161 16.5669C38.5244 16.8054 38.2459 16.6784 38.3759 16.3621C38.8028 15.3197 39.7603 12.9836 39.3068 12.4157Z" fill="#FF9900"/>
<path d="M35.2543 1.98456V0.631077C35.2543 0.42624 35.4134 0.288818 35.6044 0.288818H41.8024C42.0013 0.288818 42.1604 0.428834 42.1604 0.631077V1.79009C42.1578 1.98456 41.9907 2.23866 41.6936 2.64055L38.4819 7.12363C39.6754 7.09511 40.9351 7.26884 42.0172 7.8652C42.2612 8.00003 42.3275 8.19708 42.346 8.39155V9.83578C42.346 10.0328 42.1233 10.2636 41.8899 10.1443C39.983 9.16682 37.4502 9.06051 35.3418 10.1547C35.127 10.2688 34.9016 10.0406 34.9016 9.84356V8.47193C34.9016 8.25154 34.9042 7.87557 35.1296 7.54109L38.8506 2.32422H35.6123C35.4134 2.32422 35.2543 2.1868 35.2543 1.98456Z" fill="#221F1F"/>
<path d="M12.645 10.4296H10.7593C10.579 10.4166 10.4357 10.2844 10.4225 10.1158V0.654432C10.4225 0.465152 10.5843 0.314764 10.7858 0.314764H12.5442C12.7272 0.322538 12.873 0.459965 12.8863 0.631094V1.8679H12.9208C13.3796 0.67258 14.2415 0.115112 15.4032 0.115112C16.5834 0.115112 17.3206 0.67258 17.8511 1.8679C18.3072 0.67258 19.3442 0.115112 20.4554 0.115112C21.2458 0.115112 22.1104 0.434036 22.6381 1.14967C23.2349 1.94568 23.1129 3.1021 23.1129 4.11592L23.1102 10.0873C23.1102 10.2766 22.9484 10.4296 22.7469 10.4296H20.8639C20.6756 10.4166 20.5244 10.2688 20.5244 10.0873V5.07269C20.5244 4.67339 20.5615 3.67772 20.4714 3.29916C20.3308 2.66391 19.9091 2.485 19.3628 2.485C18.9066 2.485 18.4292 2.78318 18.2356 3.26027C18.042 3.73736 18.0606 4.53596 18.0606 5.07269V10.0873C18.0606 10.2766 17.8988 10.4296 17.6972 10.4296H15.8142C15.6233 10.4166 15.4748 10.2688 15.4748 10.0873L15.4721 5.07269C15.4721 4.01739 15.6498 2.46426 14.3105 2.46426C12.9553 2.46426 13.0083 3.97849 13.0083 5.07269V10.0873C13.0083 10.2766 12.8465 10.4296 12.645 10.4296Z" fill="#221F1F"/>
<path d="M47.4965 0.115112C50.2945 0.115112 51.8088 2.46426 51.8088 5.45125C51.8088 8.33712 50.1354 10.6266 47.4965 10.6266C44.7489 10.6266 43.2531 8.27748 43.2531 5.35013C43.2531 2.40462 44.7675 0.115112 47.4965 0.115112ZM47.5124 2.04681C46.1227 2.04681 46.0352 3.89812 46.0352 5.05195C46.0352 6.20837 46.0166 8.67678 47.4965 8.67678C48.9578 8.67678 49.0268 6.68546 49.0268 5.47199C49.0268 4.67339 48.9923 3.71921 48.7457 2.96209C48.5335 2.3035 48.1118 2.04681 47.5124 2.04681Z" fill="#221F1F"/>
<path d="M55.4369 10.4296H53.5592C53.3709 10.4166 53.2198 10.2688 53.2198 10.0873L53.2171 0.623316C53.233 0.449593 53.3895 0.314764 53.5804 0.314764H55.3282C55.4926 0.322538 55.6279 0.431444 55.665 0.579237V2.02606H55.6995C56.2273 0.732217 56.9672 0.115112 58.2694 0.115112C59.1154 0.115112 59.9402 0.413293 60.4706 1.23005C60.9639 1.98717 60.9639 3.26027 60.9639 4.17555V10.1314C60.9427 10.2973 60.7862 10.4296 60.6006 10.4296H58.7096C58.5372 10.4166 58.394 10.2921 58.3755 10.1314V4.99231C58.3755 3.95775 58.4975 2.44351 57.1953 2.44351C56.7365 2.44351 56.3148 2.74429 56.1053 3.20063C55.84 3.77885 55.8056 4.35446 55.8056 4.99231V10.0873C55.8029 10.2766 55.6385 10.4296 55.4369 10.4296Z" fill="#221F1F"/>
<path d="M30.3134 5.91012V5.51082C28.9502 5.51082 27.5101 5.79603 27.5101 7.36731C27.5101 8.16333 27.9318 8.70265 28.6558 8.70265C29.1862 8.70265 29.661 8.38372 29.9607 7.86514C30.332 7.2273 30.3134 6.62834 30.3134 5.91012ZM32.215 10.4036C32.0903 10.5125 31.91 10.5202 31.7694 10.4476C31.1435 9.93945 31.0321 9.70349 30.6873 9.21863C29.653 10.2506 28.921 10.5591 27.5791 10.5591C25.9931 10.5591 24.7572 9.60237 24.7572 7.68624C24.7572 6.19015 25.5873 5.17115 26.7675 4.67332C27.7912 4.23253 29.2207 4.15474 30.3134 4.03288V3.79433C30.3134 3.35614 30.3479 2.83756 30.0853 2.459C29.8546 2.11933 29.4143 1.97932 29.0271 1.97932C28.3084 1.97932 27.6666 2.33973 27.5101 3.08648C27.4783 3.25242 27.3536 3.41577 27.1839 3.42355L25.3539 3.23168C25.2001 3.19797 25.0304 3.0761 25.0728 2.84534C25.4945 0.677698 27.4968 0.024292 29.2897 0.024292C30.2073 0.024292 31.4061 0.262836 32.1301 0.942169C33.0477 1.77967 32.9602 2.8972 32.9602 4.11326V6.98616C32.9602 7.84959 33.3262 8.22815 33.671 8.69487C33.793 8.86081 33.8195 9.06046 33.6657 9.18492C33.2811 9.49866 32.5969 10.0821 32.2203 10.4088L32.215 10.4036Z" fill="#221F1F"/>
<path d="M5.59299 5.91012V5.51082C4.2298 5.51082 2.7897 5.79603 2.7897 7.36731C2.7897 8.16333 3.21139 8.70265 3.93542 8.70265C4.46584 8.70265 4.94057 8.38372 5.24026 7.86514C5.61156 7.2273 5.59299 6.62834 5.59299 5.91012ZM7.49456 10.4036C7.36991 10.5125 7.18957 10.5202 7.049 10.4476C6.42311 9.93945 6.31172 9.70349 5.96694 9.21863C4.93261 10.2506 4.20063 10.5591 2.85866 10.5591C1.27269 10.5591 0.0368042 9.60237 0.0368042 7.68624C0.0368042 6.19015 0.866917 5.17115 2.04711 4.67332C3.07083 4.23253 4.50032 4.15474 5.59299 4.03288V3.79433C5.59299 3.35614 5.62747 2.83756 5.36491 2.459C5.13417 2.11933 4.69392 1.97932 4.30671 1.97932C3.58799 1.97932 2.94618 2.33973 2.7897 3.08648C2.75788 3.25242 2.63323 3.41577 2.46349 3.42355L0.633531 3.23168C0.479708 3.19797 0.309972 3.0761 0.352406 2.84534C0.774093 0.677698 2.77644 0.024292 4.56927 0.024292C5.48691 0.024292 6.68566 0.262836 7.40969 0.942169C8.32733 1.77967 8.23981 2.8972 8.23981 4.11326V6.98616C8.23981 7.84959 8.6058 8.22815 8.95057 8.69487C9.07257 8.86081 9.09909 9.06046 8.94527 9.18492C8.56071 9.49866 7.87647 10.0821 7.49986 10.4088L7.49456 10.4036Z" fill="#221F1F"/>
</g>
<defs>
<clipPath id="clip0_621_288">
<rect width="61" height="18" rx="2" fill="white"/>
</clipPath>
</defs>
</svg>
