<svg width="36" height="36" viewBox="0 0 36 36" fill="none" xmlns="http://www.w3.org/2000/svg">
<g clip-path="url(#clip0_621_284)">
<path d="M27.8246 19.1257C27.8752 24.5737 32.6039 26.3866 32.6562 26.4097C32.6163 26.5375 31.9007 28.9932 30.1649 31.5299C28.6644 33.723 27.1072 35.9079 24.654 35.9531C22.2435 35.9976 21.4684 34.5238 18.7125 34.5238C15.9575 34.5238 15.0963 35.908 12.8145 35.9976C10.4465 36.0873 8.6433 33.6262 7.13044 31.4411C4.03894 26.9716 1.67639 18.8114 4.84869 13.3031C6.42462 10.5677 9.24093 8.83545 12.2978 8.79104C14.623 8.74668 16.8178 10.3554 18.2393 10.3554C19.6599 10.3554 22.3269 8.42077 25.1308 8.7049C26.3046 8.75375 29.5995 9.17904 31.7151 12.2759C31.5446 12.3816 27.7837 14.571 27.8246 19.1257ZM23.2943 5.74794C24.5515 4.2262 25.3976 2.1078 25.1668 0C23.3547 0.0728312 21.1635 1.20753 19.8637 2.72844C18.6988 4.07527 17.6787 6.23095 17.9539 8.29703C19.9737 8.4533 22.0371 7.27065 23.2943 5.74794Z" fill="black"/>
</g>
<defs>
<clipPath id="clip0_621_284">
<rect width="36" height="36" rx="2" fill="white"/>
</clipPath>
</defs>
</svg>
