<svg width="500" height="500" viewBox="0 0 500 500" fill="none" xmlns="http://www.w3.org/2000/svg">
<g clip-path="url(#clip0_184_56)">
<path d="M96.6953 447.375C140.539 481.435 194.481 499.916 250 499.898C313.164 499.898 370.75 476.445 414.688 437.945C415.219 437.477 414.961 437.164 414.43 437.477C394.711 450.648 338.508 479.398 249.992 479.398C173.07 479.398 124.461 462.234 97.0234 446.914C96.5 446.656 96.3047 447.039 96.6953 447.375ZM267.047 460.148C328.57 460.148 396.172 443.375 436.602 410.18C447.664 401.133 458.203 389.086 467.641 372.914C473.078 363.602 478.391 352.547 482.719 341.664C482.914 341.133 482.586 340.883 482.188 341.469C444.586 396.805 335.703 431.313 223.281 431.313C143.812 431.313 58.3125 405.898 24.8438 357.375C24.5156 356.93 24.1875 357.117 24.375 357.633C55.5625 423.914 150.156 460.133 267.031 460.133M199.75 350.187C71.7969 350.187 11.4687 290.594 0.53125 249.93C0.398438 249.344 0.0078125 249.461 0.0078125 250.008C0.0078125 263.695 1.375 281.367 3.73437 293.094C4.85937 298.797 9.51563 307.758 16.2344 314.969C47.2813 347.187 124.547 392.437 258.312 392.437C440.578 392.437 482.25 331.734 490.758 311.758C496.852 297.477 499.992 271.68 499.992 250C499.992 244.766 499.859 240.562 499.664 236.453C499.664 235.789 499.273 235.734 499.141 236.375C490.039 285.234 334.234 350.187 199.75 350.187ZM24.1016 142.789C16.7734 157.336 8.63281 181.891 6.22656 194.586C5.16406 200.031 5.61719 202.633 7.53125 206.695C22.8594 239.25 100.438 291.305 281.383 291.305C391.773 291.305 477.523 264.195 491.422 214.695C493.977 205.586 494.117 195.969 490.828 183.008C487.156 168.523 480.281 151.633 474.461 139.773C474.266 139.383 473.93 139.445 473.992 139.898C476.156 204.742 295.141 246.641 203.805 246.641C104.875 246.641 22.3359 207.227 22.3359 157.453C22.3359 152.672 23.3281 147.891 24.5625 142.906C24.6875 142.453 24.2969 142.375 24.0938 142.773M415.086 63.0859C416.133 64.6484 416.664 66.4922 416.664 68.8516C416.664 96.6172 331.687 145.727 196.406 145.727C97.0078 145.727 78.3984 108.852 78.3984 85.4141C78.3984 77.0312 81.5234 68.4609 88.6953 59.7422C89.0859 59.2266 88.75 59.0234 88.3047 59.4141C75.3906 70.3516 63.5391 82.6719 53.1172 95.9609C48.1406 102.25 45.0547 107.812 45.0547 111.148C45.0547 159.742 166.906 194.977 280.836 194.977C402.242 194.977 456.414 155.344 456.414 120.523C456.414 108.078 451.57 100.813 439.172 86.7266C431.125 77.5625 423.516 70.1016 415.461 62.7578C415.07 62.4453 414.797 62.6953 415.07 63.0859M377.852 35.3281C340.383 12.8672 296.875 0.171875 249.977 0.171875C202.742 0.171875 157.93 13.3984 120.328 36.4453C109.047 43.4766 102.703 48.9453 102.703 56.1016C102.703 77.1797 151.961 99.8516 239.359 99.8516C325.844 99.8516 392.93 75.0234 392.93 51.1328C392.93 45.4297 387.945 41.4453 377.852 35.4141" fill="#00A8E0"/>
</g>
<defs>
<clipPath id="clip0_184_56">
<rect width="500" height="500" fill="white"/>
</clipPath>
</defs>
</svg>
