<svg width="500" height="500" viewBox="0 0 500 500" fill="none" xmlns="http://www.w3.org/2000/svg">
<g clip-path="url(#clip0_184_49)">
<path d="M250 0C112.069 0 0 112.069 0 250C0 276.207 4.13793 301.724 11.7241 325.517C17.5862 322.759 23.4483 320 29.6552 317.586C58.2759 306.207 84.4828 310 110.69 325.862C110.69 325.862 120.345 331.724 123.103 333.448C135.172 341.034 146.897 348.276 157.931 348.276C168.621 348.276 178.966 345.517 183.448 324.828C190.345 292.759 207.241 214.483 214.483 175.517C218.621 152.759 221.034 140.345 223.448 132.069C227.586 117.586 235.517 109.31 246.552 108.276C246.552 108.276 248.621 107.931 250 107.931C251.379 107.931 253.103 108.276 253.103 108.276C264.138 109.655 272.069 117.586 276.552 132.414C278.966 140.69 281.379 153.103 285.517 175.862C292.759 214.828 309.655 293.103 316.552 325.172C321.034 345.517 331.379 348.621 342.069 348.621C353.103 348.621 364.828 341.379 376.897 333.793C379.655 332.069 389.31 326.207 389.31 326.207C415.517 310.345 441.724 306.552 470.345 317.931C476.552 320.345 482.414 323.103 488.276 325.862C495.862 302.069 500 276.552 500 250.345C500 112.069 387.931 0 250 0Z" fill="#CC092F"/>
<path d="M424.484 353.793C415.173 356.897 406.553 362.414 398.277 367.931C382.415 377.931 364.829 388.966 342.07 388.966C308.277 388.966 284.829 368.966 277.242 333.793C271.38 306.552 250.001 204.138 250.001 204.138C241.725 245.862 228.622 306.552 222.76 333.793C215.173 368.966 191.725 388.966 157.932 388.966C135.173 388.966 117.242 377.586 101.725 367.931C93.4493 362.759 84.8286 357.241 75.5183 353.793C65.8631 350.69 55.8631 350.69 46.2079 353.448C39.3114 355.517 32.7596 358.276 26.5527 361.379C67.2424 443.448 150.001 500 248.277 500C346.208 500 432.76 443.448 473.794 361.379C467.242 358.276 460.691 355.517 454.139 353.448C444.139 350.69 434.139 350.345 424.484 353.793Z" fill="#CC092F"/>
<path d="M470.345 317.586C441.725 306.207 415.518 310 389.311 325.862C389.311 325.862 379.656 331.724 376.897 333.448C364.828 341.034 353.104 348.276 342.069 348.276C331.38 348.276 321.035 345.517 316.552 324.828C309.656 292.759 293.104 214.483 285.518 175.517C281.38 152.759 278.966 140.345 276.552 132.069C272.414 117.241 264.483 109.31 253.104 108.276C253.104 108.276 251.38 107.931 250 107.931C248.621 107.931 246.552 108.276 246.552 108.276C235.518 109.655 227.587 117.586 223.449 132.069C221.035 140.345 218.621 152.759 214.483 175.517C207.242 214.483 190.345 292.759 183.449 324.828C178.966 345.172 168.621 348.276 157.931 348.276C146.897 348.276 135.173 341.034 123.104 333.448C120.345 331.724 110.69 325.862 110.69 325.862C84.4832 310 58.2763 306.207 29.6556 317.586C23.4487 320 17.5867 322.759 11.7246 325.517C15.5177 337.931 20.6901 350 26.2074 361.379C32.4143 358.276 38.966 355.517 45.8625 353.448C55.5177 350.69 65.5177 350.345 75.1729 353.793C84.4832 356.897 93.1039 362.414 101.38 367.931C117.242 377.931 134.828 388.966 157.587 388.966C191.38 388.966 214.828 368.966 222.414 333.793C228.276 306.552 241.38 245.862 249.656 204.138C249.656 204.138 271.035 306.552 276.897 333.793C284.483 368.966 307.931 388.966 341.725 388.966C364.483 388.966 382.414 377.586 397.931 367.931C406.207 362.759 414.828 357.241 424.138 353.793C433.794 350.69 443.794 350.69 453.449 353.448C460.345 355.517 466.552 358.276 473.104 361.379C478.966 350 483.794 337.931 487.587 325.517C482.414 322.759 476.552 320 470.345 317.586Z" fill="white"/>
</g>
<defs>
<clipPath id="clip0_184_49">
<rect width="500" height="500" fill="white"/>
</clipPath>
</defs>
</svg>
