<svg id="&#x5F62;&#x72B6;_1_1_" enable-background="new 0 0 512 512" height="512" viewBox="0 0 512 512" width="512" xmlns="http://www.w3.org/2000/svg"><g id="&#x5F62;&#x72B6;_1"><g><path clip-rule="evenodd" d="m198.484 307.538c-19.472-7.719-44.445-6.412-64.39-.588l-21.041 6.242-10.946 3.364c-11.913 3.241-27.293 7.497-39.178 1.205-10.974-5.936-14.882-18.037-13.928-30.366 1.945-16.999 8.614-32.037 16.437-46.59 9.597-16.185 21.012-32.426 36.728-45.067 4.139-2.838 8.22-6.225 13.623-5.599 1.216.246 2.006 1.04 2.668 2.074.241.729.601 1.762-.252 2.307-4.984.653-9.31 5.616-10.422 10.288-.37 2.248-.503 4.736 1.255 6.444.784.854 1.818 1.284 3.027 1.287 6.747-.948 10.788-8.405 12.081-14.293.99-4.979.401-10.508-3.96-13.742-4.909-3.782-12.265-2.231-17.796-.851-26.943 8.895-49.754 35.545-62.956 59.979-3.116 5.941-5.932 12.007-8.204 18.258-6.983 17.711-8.713 43.643 5.997 58.331 9.315 10.235 23.649 10.65 37.019 9.426 26.375-3.316 49.443-16.598 77.494-13.891 8.683 1.729 17.167 6.194 22.185 14.235l.791.178c16.547-7.893 38.281-3.387 54.964 1.167.367.063.367-.304.372-.604-7.678-11.567-19.803-18.295-31.568-23.194zm27.88-88.467c-1.94-.493-2.617 1.57-3.589 2.539-1.216.482-2.006-.798-2.976-1.165-6.005-3.178-13.06-.531-18.046 2.914-16.083 11.729-22.46 29.567-34.476 43.982-5.241 5.691-11.276 11.193-18.147 13.903-2.372.598-4.683-.202-6.071-2.087-1.872-2.979-.942-7.168-.203-10.384 2.697-8.921 6.797-17.349 11.865-25.29 4.035-5.938 8.555-13.031 15.491-15.921 1.149.003 2.242.129 2.973 1.163.958 2.617-2.558 1.813-3.719 2.965-4.076 2.657-7.01 7.328-5.992 12.371.414 1.095 1.325 2.19 2.42 2.559 2.728.86 5.102-.528 6.993-2.345 4.939-5.51 8.487-13.453 4.866-20.635-1.388-2.494-3.997-4.024-6.662-4.458-14.271-1.509-23.67 11.336-32.453 21.146-4.083 3.875-8.648 6.531-14.292 6.692-.425-.062-.791-.547-.791-.976 2.153-7.461 4.623-18.325-1.739-24.662-3.023-2.627-7.276-3.005-11.232-2.107-14.773 4.688-25.458 20.324-32.427 33.115-3.305 6.851-6.059 13.953-7.481 21.599-.756 6.735-.232 14.03 5.709 18.122 5.695 3.235 12.932.835 17.801-2.672 11.756-9.009 18.849-21.865 25.389-33.988l.977-1.093c2.795-.416 5.59-.892 8.506-1.124.607.123.667.794.484 1.277-4.228 10.251-10.59 24.082-2.549 34.615 3.33 3.532 7.637 5.006 12.614 4.417 10.759-2.03 19.531-9.224 27.642-17.214.242-.184.849-.364 1.026.12.111 4.133-.819 8.93 1.117 12.642 1.027 2.188 3.206 3.959 5.513 4.452 7.468.939 12.951-3.842 18.25-8.626.367-.117.791-.054 1.034.253.661 2.608.769 5.527 3.19 7.361 1.58 1.521 4.128 1.347 6.193 1.11 12.466-3.118 21.314-15.232 28.094-25.661 2.199-4 4.702-7.877 6.299-12.123-1.032-.974-2.792-.374-4.193-.56-1.334-.187-2.125 1.021-2.795 1.992-1.591 3.336-3.548 6.488-5.746 9.518-2.504 3.209-5.309 7.026-8.904 9.081-.664.237-1.577.301-1.996-.43-.12-.61-.06-1.344.187-1.885l24.953-50.694 1.29-3.092-.3-.426c-4.558-.437-9.665-.213-14.097-.29zm-113.836 36.415c-3.792 7.4-8.435 15.097-15.134 20.722-1.401.904-2.923 1.872-4.747 1.379-1.698-.424-2.602-2.194-2.963-3.716.154-8.199 3.637-15.172 7.058-22.081l3.304-5.517c.425-.427.667-1.031 1.281-1.149l.666.123c3.088 3.474 6.965 6.222 10.971 7.813.42.792-.129 1.701-.436 2.426zm6.802-17.228c-.617 2.552-1.356 5.1-2.572 7.405-.677.971-1.951.357-2.737.11-3.219-1.225-6.609-4.396-6.836-8.041-.108-4.133 2.514-7.826 6.166-9.637 1.154-.544 2.795-.476 3.886.133 3.216 2.202 2.711 6.693 2.093 10.03zm96.4-.758c-5.507 12.132-11.621 24.074-19.618 35.163-1.768 1.938-3.595 4.421-6.333 4.352-.67-.184-1.392-.674-1.693-1.344-.963-3.339.444-6.618 1.368-9.651l2.144-5.4c5.385-11.277 11.197-23.163 21.977-31.449.971-.481 2.128-1.328 3.342-.778.484.307 1.097.733 1.151 1.341.05 2.857-1.418 5.219-2.338 7.766zm40.216-.892c1.398-.179 2.677-1.33 3.291-2.541 2.509-4.61 4.711-9.338 6.726-14.128l-.483-.49-11.961-.163c-1.642.176-3.527.112-4.744 1.443-2.993 4.481-5.012 9.396-7.399 14.125-.124.549-.554 1.215-.07 1.702 4.619.44 9.779.154 14.64.052zm61.918 28.701c-.776-3.953-3.551-8.395-7.745-9.502-9.586-2.281-17.504 3.826-23.659 10.973-7.755 10.846-12.778 22.918-12.278 37.016.119.236.178.727.603.606 3.477-4.06 7.804-8.114 12.19-11.137 2.311-1.755 4.93-2.896 7.122-4.712.879-7.652 2.963-14.751 7.903-20.687 2.138-2.185 4.761-4.781 7.912-3.374 3.512 2.622 2.46 7.843 2.025 11.672-2.658 12.804-9.137 24.143-18.77 33.951-6.332 5.445-14.433 11.248-22.858 6.72-9.573-6.59-6.49-21.037-4.208-30.448 7.373-25.06 20.328-47.854 37.408-68.871 9.574-10.838 19.945-22.283 32.897-26.612.973-.179 2.312-.659 3.101.133.237.365-.128.665-.306.969-7.982 6.048-15.361 13.92-20.133 22.285-4.148 7.701-9.167 18.25-3.486 26.897 2.054 2.741 5.328 3.786 8.732 3.066 7.783-2.22 13.09-9.127 17.673-15.731 5.739-9.456 9.967-19.828 9.704-31.734.184-1.216-.414-2.796.865-3.461 11.608-1.904 21.856 2.324 30.768 8.368l19.09 13.126c.425.245 1.092.429 1.516.005 3.721-4.786 7.202-9.513 11.346-14.114.49-.545.919-1.517.01-2.005-7.211-4.52-14.362-9.222-21.885-12.892-12.976-6.485-30.965-4.662-43.916.517-1.037.361-1.886-.249-2.606-.859-3.76-3.355-9.287-3.798-14.206-3.087-18.059 3.399-32.975 14.525-46.755 28.267-14.201 14.649-24.219 31.259-32.54 48.48l-4.535 10.738c-4.904 14.071-9.948 32.766-2.653 47.309 3.137 6.817 10.042 11.943 17.45 12.389 19.313 1.828 34.551-13.486 44.197-28.639 5.998-10.787 11.564-22.376 10.027-35.622zm27.148-68.666c1.025 1.582.414 3.89.409 5.712-1.379 12.326-6.702 23.059-15.484 32.323-2.436 1.874-5.059 4.294-8.328 3.374-1.704-.616-2.36-2.38-2.539-4.022.268-8.136 4.12-14.805 8.327-21.29 4.032-5.818 9.583-11.57 15.49-15.498.608-.421 1.392-.722 2.125-.599zm109.869 58.509c-1.463-.063-1.526 1.576-2.559 2.302-1.463.725-2.371-.859-3.586-1.29-6.911-3.181-13.969.438-19.333 4.667-16.324 13.862-22.217 32.788-35.577 48.234-1.832 1.692-3.897 4.178-6.511 3.017-.968-.613-1.388-1.707-1.446-2.864.266-6.865 2.172-13.233 4.079-19.482 1.037-2.305 1.106-5.097 3.181-6.912l9.869-8.11c13.642-12.402 24.875-26.03 34.763-40.271.795-1.517 2.258-2.848 2.381-4.549l-.425-.12c-2.184.174-4.372.164-6.263 1.072-8.846 12.48-18.424 24.776-30.249 35.49-1.581 1.085-2.805 3.21-4.869 3.261-.303-.244-.426-.487-.356-.851 2.386-6.312 5.444-12.312 8.382-18.378 8.925-17.461 18.646-34.742 32.062-50.303 3.601-4.061 7.379-8.239 12.067-10.528.913-.302 2.246-.662 2.849.432.483 1.098.297 2.068.173 3.221-.429 2.126-1.596 4.064-1.664 6.25.124.125.247.063.365.126 2.495-.784 6.263-1.132 6.639-4.534.929-3.824 1.917-8.8-1.601-11.668-3.151-2.441-7.894-1.06-11.177.082-13.871 5.967-25.818 18.743-35.158 31.103-14.952 21.389-27.547 43.819-36.014 67.969l-.913 1.145c-2.128 1.091-4.924 1.442-7.354 1.072-.484-.184-.97-.671-.786-1.338 1.854-7.528 6.076-17.05 1.063-24.48-1.818-2.493-4.427-3.715-7.399-3.789-11.79.751-21.121 10.862-28.135 20.131-8.061 11.876-14.664 24.31-15.864 39.004-.021 5.834 1.472 12.032 7.172 14.482 6.86 2.03 13.011-1.656 17.998-6.071 9.514-9.018 15.56-19.45 21.066-30.239l1.221-1.397 7.472-.092c.485.058 1.093.61 1.088 1.154-2.218 9.534-5.537 20.396-2.416 30.309 1.028 3.036 3.991 6.328 7.39 6.584 8.931.759 15.637-7.178 20.948-13.534l.606-.243c.296.184.178.544.419.733.352 4.677.88 10.145 5.606 12.349 7.588 2.093 13.437-3.355 18.859-8.196.305-.184.914-.24 1.155.123 1.205 2.558.949 5.897 3.616 7.731 3.338 1.831 7.532.449 10.579-1.057 13.08-6.881 21.446-20.458 27.442-32.892.188-.908 1.285-1.936.435-2.732-1.397-.184-3.156-.434-4.435.168-2.382 3.576-4.396 7.275-6.9 10.789-2.504 3.576-5.311 7.086-9.143 9.201-.791.178-1.764.117-2.065-.8-.113-2.125 1.106-4.123 2.025-6.002l20.434-41.236 3.305-6.669c.118-.425.425-1.032 0-1.397-4.614-.384-9.716-.218-14.511-.177zm-99.2 36.772c-3.795 7.276-7.953 15.279-14.957 20.481-1.216.601-2.737 1.204-4.13.714-2.123-.676-3.151-2.805-3.27-4.869.021-5.834 2.293-10.685 4.371-15.599 1.833-3.883 3.552-7.763 6.175-11.276.425-.243 1.091-.177 1.457.187 2.904 3.226 6.416 6.097 10.056 7.928.968.552.663 1.71.298 2.434zm4.217-9.645c-.485.848-1.699.544-2.366.298-3.394-1.228-6.367-4.706-6.595-8.408.139-3.946 1.788-7.646 5.201-9.879 1.151-.544 2.554-.968 3.888-.598 1.333.431 2.426 1.708 2.845 2.988 1.076 5.474-.889 10.866-2.973 15.599zm87.406-14.7c-5.029 12.38-10.412 24.569-17.742 35.959-2.198 3.149-4.514 6.973-8.11 8.842-.91.3-2.065.237-2.791-.493-1.333-1.345-.898-3.529-.771-5.287l1.719-5.951c4.847-11.706 9.983-23.35 19.673-32.972 2.193-1.574 4.515-4.848 7.488-3.438 1.027.731.72 2.242.534 3.34zm-7.81-60.768-.973.847-6.47 8.359-5.188 7.818c-.247.483-.919 1.454.049 1.701l5.346.079c22.661-.284 43.623-18.135 52.257-38.451.607-1.578 1.402-3.216 1.472-4.978-13.168 13.138-27.778 24.264-46.493 24.625z" fill="#e0051c" fill-rule="evenodd"/></g></g></svg>