<svg width="34" height="34" viewBox="0 0 34 34" fill="none" xmlns="http://www.w3.org/2000/svg">
<g clip-path="url(#clip0_621_305)">
<path d="M33.5949 17.3181C33.5949 15.9251 33.4818 14.9086 33.2372 13.8545H17.3309V20.1416H26.6676C26.4794 21.7041 25.4629 24.0571 23.204 25.6382L23.1723 25.8487L28.2016 29.7448L28.55 29.7796C31.75 26.8242 33.5949 22.4758 33.5949 17.3181Z" fill="#4285F4"/>
<path d="M17.3309 33.8832C21.9051 33.8832 25.7451 32.3772 28.55 29.7795L23.2039 25.6382C21.7733 26.6358 19.8533 27.3323 17.3309 27.3323C12.8508 27.3323 9.04839 24.377 7.69293 20.2922L7.49425 20.3091L2.26474 24.3563L2.19635 24.5464C4.98227 30.0806 10.7048 33.8832 17.3309 33.8832Z" fill="#34A853"/>
<path d="M7.69298 20.2923C7.33534 19.2382 7.12835 18.1087 7.12835 16.9416C7.12835 15.7745 7.33534 14.6451 7.67417 13.591L7.66469 13.3665L2.36965 9.25427L2.1964 9.33668C1.04819 11.6332 0.389343 14.2122 0.389343 16.9416C0.389343 19.6711 1.04819 22.2499 2.1964 24.5465L7.69298 20.2923Z" fill="#FBBC05"/>
<path d="M17.3309 6.55071C20.5121 6.55071 22.658 7.92485 23.8816 9.0732L28.6629 4.40482C25.7264 1.67534 21.9051 0 17.3309 0C10.7048 0 4.98227 3.80242 2.19635 9.33663L7.67411 13.5909C9.04839 9.50611 12.8508 6.55071 17.3309 6.55071Z" fill="#EB4335"/>
</g>
<defs>
<clipPath id="clip0_621_305">
<rect width="34" height="34" rx="2" fill="white"/>
</clipPath>
</defs>
</svg>
