<svg width="46" height="32" viewBox="0 0 46 32" fill="none" xmlns="http://www.w3.org/2000/svg">
<path d="M36.8901 20.9028C37.888 23.4125 39.4603 25.892 41.5618 28.2808C42.2271 29.0368 42.3178 30.1253 41.7735 30.9719C41.3501 31.6372 40.6547 32 39.8988 32C39.6871 32 39.4754 31.985 39.2637 31.9093C34.8189 30.6091 24.4321 25.9978 24.1449 11.2115C24.0391 5.51173 28.2118 0.613219 33.6396 0.0538196C36.6482 -0.248574 39.6417 0.734096 41.8642 2.72981C44.0867 4.74065 45.3567 7.61327 45.3567 10.6068C45.3567 15.596 41.8188 19.9654 36.8901 20.9028Z" fill="#2ED674"/>
<path d="M9.50977 0.0538196C12.5034 -0.248574 15.4969 0.734096 17.7193 2.72981C19.9418 4.74065 21.2119 7.61327 21.2119 10.6068C21.2119 15.596 17.674 19.9654 12.7452 20.9028C13.7431 23.4125 15.3154 25.892 17.417 28.2808C18.0822 29.0367 18.1729 30.1252 17.6286 30.9719C17.2053 31.6371 16.5098 32 15.7539 32C15.5423 32 15.3306 31.9849 15.1189 31.9093C10.674 30.6091 0.287281 25.9978 2.09808e-05 11.2115V10.9999C2.09808e-05 5.39075 4.12745 0.613219 9.50977 0.0538196Z" fill="#2ED674"/>
</svg>
