<svg width="38" height="38" viewBox="0 0 38 38" fill="none" xmlns="http://www.w3.org/2000/svg">
<g clip-path="url(#clip0_621_312)">
<path d="M19 8.49181L15.0789 3.69906C15.0789 3.69906 8.36238 3.84156 1.66962 6.95281C3.38319 9.54394 6.78419 10.8122 6.78419 10.8122C7.01337 8.53575 8.60819 7.98 13.68 7.98L18.9988 38.0012L24.3544 7.97406C29.3894 7.97406 30.9842 8.531 31.2134 10.8063C31.2134 10.8063 34.6156 9.55106 36.328 6.95875C29.6364 3.8475 22.9187 3.705 22.9187 3.705L18.9976 8.49181H19.0036H19ZM19 2.31919C13.5945 2.26931 7.40287 3.154 1.064 5.92444C0.216125 4.39019 0 3.71688 0 3.71688C6.92669 0.970188 13.4152 0.0249375 19 0C24.5848 0.0249375 31.0733 0.965438 38 3.71688C38 3.71688 37.6912 4.55169 36.936 5.93156C30.5959 3.14806 24.4055 2.2705 19 2.31325V2.31919Z" fill="#FA002D"/>
</g>
<defs>
<clipPath id="clip0_621_312">
<rect width="38" height="38" rx="2" transform="matrix(-1 0 0 1 38 0)" fill="white"/>
</clipPath>
</defs>
</svg>
