<?xml version="1.0" encoding="UTF-8"?>
<!-- Generator: Adobe Illustrator 24.1.0, SVG Export Plug-In . SVG Version: 6.00 Build 0)  -->
<svg xmlns="http://www.w3.org/2000/svg" xmlns:xlink="http://www.w3.org/1999/xlink" version="1.1" id="Capa_1" x="0px" y="0px" viewBox="0 0 512 512" style="enable-background:new 0 0 512 512;" xml:space="preserve" width="512" height="512">
<g>
	<g id="XMLID_1_">
		<path d="M511.75,305.79c0.43,0.64,0.43,1.83-0.97,1.83h-20c-1.62,0-2.26-0.65-2.9-1.73l-21.3-38.27h-19.35    c-9.57,0-13.12,2.9-13.12,9.35v30.65h-19.24c-1.73,0-2.58-0.87-2.58-2.59v-95.15c0-5.06,2.79-7.32,10.21-7.32h44.95    c26.12,0,41.93,6.89,41.93,32.37c0,19.67-9.46,27.42-21.18,30.43L511.75,305.79z M487.34,235.36c0-10.64-3.01-15.91-16.67-15.91    h-36.56v31.82h36.56C484.33,251.27,487.34,246.11,487.34,235.36z"/>
		<path d="M373.53,202.56c0.86,0,1.18,0.44,0.86,1.29l-5.7,14.09c-0.54,1.18-1.29,1.72-2.9,1.72h-59.9V246h50    c0.86,0,1.18,0.43,0.86,1.29l-5.48,13.55c-0.54,1.18-1.29,1.72-2.91,1.72h-29.35c-9.57,0-13.12,2.9-13.12,9.36v18.6h67.64    c0.86,0,1.18,0.43,0.86,1.29l-5.7,14.08c-0.54,1.19-1.29,1.73-2.9,1.73h-73.87c-5.71,0-7.85-1.94-7.85-6.24v-91.51    c0-5.05,2.79-7.31,10.21-7.31H373.53z"/>
		<path d="M226.28,252.24c11.83,3.12,17.2,13.76,17.2,26.34c0,20.97-14.84,29.03-35.59,29.03h-55.05c-5.7,0-7.85-1.93-7.85-6.23    v-91.51c0-5.05,2.8-7.31,10.22-7.31h44.73c19.56,0,38.49,3.44,38.49,26.67C238.43,239.23,234.88,247.72,226.28,252.24z     M221.44,276.54c0-9.67-3.44-14.41-15.8-14.41h-25.71c-9.57,0-13.12,2.91-13.12,9.35v19.25h38.82    C218,290.73,221.44,286.22,221.44,276.54z M216.39,232.88c0-9.06-3.23-13.44-14.84-13.44h-34.74v26.89h34.74    C213.16,246.33,216.39,241.95,216.39,232.88z"/>
		<path d="M102.79,202.56v62.47c0,32.91-20.97,44.41-51.39,44.41c-30.43,0-51.4-11.51-51.4-44.41v-59.89c0-1.72,0.86-2.58,2.58-2.58    h19.68v61.51c0,19.67,8.71,27.84,29.14,27.84s29.14-8.17,29.14-27.84v-58.93c0-1.71,0.85-2.58,2.58-2.58H102.79z"/>
	</g>
</g>
</svg>
