<svg width="444" height="500" viewBox="0 0 444 500" fill="none" xmlns="http://www.w3.org/2000/svg">
<g clip-path="url(#clip0_184_41)">
<path d="M313.37 227.802C323.801 225.657 416.095 183.412 424.333 178.661C443.141 167.813 449.584 143.788 438.726 125C427.867 106.212 403.818 99.7742 385.011 110.622C376.772 115.373 294.003 174.098 286.927 182.051C278.818 191.165 277.416 204.2 283.415 214.578C289.414 224.957 301.415 230.262 313.37 227.802Z" fill="#FFC220"/>
<path d="M424.334 321.339C416.096 316.588 323.802 274.342 313.371 272.197C301.416 269.738 289.414 275.043 283.417 285.422C277.418 295.802 278.82 308.837 286.929 317.95C294.005 325.902 376.774 384.628 385.013 389.379C403.82 400.227 427.869 393.789 438.728 375.001C449.586 356.213 443.141 332.187 424.334 321.339Z" fill="#FFC220"/>
<path d="M222 320.843C210.003 320.843 199.404 328.573 195.558 340.147C192.202 350.244 182.678 451.215 182.678 460.718C182.678 482.413 200.283 500 222 500C243.717 500 261.322 482.413 261.322 460.718C261.322 451.215 251.798 350.244 248.442 340.147C244.596 328.573 233.997 320.843 222 320.843Z" fill="#FFC220"/>
<path d="M130.631 272.197C120.2 274.343 27.9058 316.588 19.6684 321.339C0.860199 332.187 -5.58381 356.212 5.27466 375C16.1331 393.788 40.1824 400.226 58.9897 389.378C67.2281 384.627 149.997 325.902 157.072 317.949C165.182 308.835 166.583 295.8 160.585 285.422C154.586 275.043 142.587 269.738 130.631 272.197Z" fill="#FFC220"/>
<path d="M58.9906 110.622C40.1833 99.7742 16.134 106.212 5.27469 125C-5.58378 143.788 0.860229 167.813 19.6676 178.661C27.9059 183.412 120.2 225.657 130.63 227.802C142.586 230.262 154.587 224.957 160.586 214.577C166.584 204.198 165.182 191.164 157.073 182.05C149.997 174.098 67.2281 115.372 58.9906 110.622Z" fill="#FFC220"/>
<path d="M222 0C200.282 0 182.678 17.5875 182.678 39.2825C182.678 48.785 192.202 149.756 195.558 159.853C199.405 171.427 210.004 179.157 222 179.157C233.996 179.157 244.596 171.427 248.442 159.853C251.798 149.756 261.322 48.785 261.322 39.2825C261.322 17.5875 243.717 0 222 0Z" fill="#FFC220"/>
</g>
<defs>
<clipPath id="clip0_184_41">
<rect width="444" height="500" fill="white"/>
</clipPath>
</defs>
</svg>
