<svg width="200" height="46" viewBox="0 0 200 46" fill="none" xmlns="http://www.w3.org/2000/svg">
<path d="M46.3757 14.9901V32.3629H60.265V28.7712H50.2338V23.7351H55.6738C57.0628 23.7351 57.7186 23.0714 57.7186 21.744V20.4557H50.2338V16.2784H60.265V12.8819H48.3433C47.0316 12.921 46.3757 13.6627 46.3757 14.9901Z" fill="#1DBF73"/>
<path d="M68.753 16.9813C65.3192 16.9813 63.3516 18.3477 62.8886 21.1586H66.631C66.8239 20.4559 67.557 20.1045 68.9073 20.1045C70.4506 20.1045 71.2608 20.5339 71.338 21.3928C71.338 22.2127 70.5278 22.7202 68.9073 22.9154C65.1263 23.3058 62.5028 24.2427 62.4256 27.9125C62.4256 31.2699 64.9334 32.9487 68.5215 32.6754C72.5726 32.4021 75.0418 30.5282 75.0418 26.3509V21.1586C74.9646 18.3867 72.8812 16.9813 68.753 16.9813ZM71.3766 26.1557C71.3766 28.3029 70.1034 29.5522 68.02 29.5522C66.8239 29.5522 66.2066 28.9666 66.1295 27.7954C66.1295 26.6632 66.9011 25.9605 68.4058 25.6872C69.5246 25.453 70.5278 25.1407 71.4151 24.7893V26.1557H71.3766Z" fill="#1DBF73"/>
<path d="M77.4338 24.5553V32.3634H81.2534V24.4773C81.2534 22.291 82.2951 21.1589 84.3785 21.1589H85.6517V17.2158H85.1116C80.096 17.2158 77.5496 19.6753 77.4338 24.5553Z" fill="#1DBF73"/>
<path d="M94.3711 16.9813C90.0886 16.9813 87.9666 19.1285 87.9666 23.4619V32.3631H91.7862V22.6811C91.8247 21.1195 92.6735 20.3387 94.3325 20.3387C95.9915 20.3387 96.8403 21.1195 96.9175 22.6811V30.4501C96.9175 31.6603 97.5348 32.2459 98.7694 32.324H100.698V23.4619C100.737 19.1285 98.6537 16.9813 94.3711 16.9813Z" fill="#1DBF73"/>
<path d="M104.943 11.5935H102.975V14.5606H106.717V13.4284C106.756 12.2182 106.177 11.5935 104.943 11.5935Z" fill="#1DBF73"/>
<path d="M104.943 17.2158H102.975V32.3634H106.717V19.0507C106.756 17.8405 106.139 17.2158 104.943 17.2158Z" fill="#1DBF73"/>
<path d="M115.822 16.9813C111.54 16.9813 109.418 19.1285 109.418 23.4619V32.3631H113.238V22.6811C113.276 21.1195 114.125 20.3387 115.784 20.3387C117.443 20.3387 118.292 21.1195 118.369 22.6811V30.4501C118.369 31.6603 118.986 32.2459 120.221 32.324H122.15V23.4619C122.188 19.1285 120.105 16.9813 115.822 16.9813Z" fill="#1DBF73"/>
<path d="M131.178 17.1762C126.548 17.2543 124.233 19.7919 124.233 24.828C124.233 30.0204 126.201 32.6751 130.213 32.6751C132.065 32.6751 133.531 31.9333 134.496 30.4498V32.0114C134.496 34.3538 133.493 35.525 131.487 35.525C129.943 35.525 129.056 35.0175 128.786 33.9244H124.619C125.506 37.1256 127.628 38.7263 131.024 38.7263C135.808 38.6482 138.161 36.7352 138.161 32.9093V23.9301C138.161 19.3624 135.846 17.1371 131.178 17.1762ZM131.217 29.3176C129.172 29.3176 128.169 27.8732 128.091 24.9451C128.091 21.9 129.133 20.3775 131.294 20.3775C133.454 20.3775 134.496 21.9 134.457 24.9451C134.342 27.8341 133.261 29.3176 131.217 29.3176Z" fill="#1DBF73"/>
<path d="M147.228 22.9153C145.26 22.5249 144.334 21.9393 144.334 21.1585C144.334 20.3777 145.067 19.9873 146.533 19.9873C147.768 19.9873 148.54 20.3777 148.81 21.0023C149.041 21.5879 149.62 21.9003 150.469 21.9393H152.861C152.784 20.3777 152.166 19.1284 151.086 18.2305C149.967 17.3716 148.424 16.9422 146.495 16.9422C143.061 16.9812 140.515 18.5428 140.515 21.8222C140.553 24.2036 142.251 25.6871 145.53 26.2727C148.115 26.7412 149.388 27.3659 149.388 28.1467C149.388 29.1227 148.617 29.5911 146.996 29.5911C145.144 29.5911 143.987 29.0055 143.871 27.3659H140.013C140.013 29.1227 140.592 30.411 141.711 31.2699C142.714 32.1678 144.334 32.5972 146.418 32.5972C150.392 32.5972 153.247 31.2308 153.247 27.522C153.247 26.507 152.899 25.57 152.205 24.8283C151.433 24.0865 149.774 23.4228 147.228 22.9153Z" fill="#1DBF73"/>
<path d="M164.281 16.122C166.133 16.122 167.406 16.8247 168.062 18.2302C168.448 19.011 169.065 19.4014 169.914 19.4014H172.306C172.113 17.2932 171.341 15.5754 169.991 14.3652C168.564 13.155 166.673 12.6084 164.32 12.6084C158.224 12.6084 155.137 16.3953 155.137 22.6417C155.137 28.6929 158.069 32.675 163.972 32.675C168.834 32.675 171.959 30.1374 172.306 25.6478H168.486C168.062 27.795 166.634 29.1614 164.204 29.1614C160.616 29.1614 159.072 26.4676 159.072 22.6807C159.034 18.6986 160.616 16.122 164.281 16.122Z" fill="#1DBF73"/>
<path d="M180.717 16.9813C177.283 16.9813 175.315 18.3477 174.852 21.1586H178.595C178.788 20.4559 179.521 20.1045 180.871 20.1045C182.414 20.1045 183.225 20.5339 183.302 21.3928C183.302 22.2127 182.491 22.7202 180.871 22.9154C177.09 23.3058 174.467 24.2427 174.389 27.9125C174.389 31.2699 176.897 32.9487 180.485 32.6754C184.536 32.4021 187.006 30.5282 187.006 26.3509V21.1586C186.928 18.3867 184.845 16.9813 180.717 16.9813ZM183.379 26.1557C183.379 28.3029 182.106 29.5522 180.022 29.5522C178.826 29.5522 178.209 28.9666 178.132 27.7954C178.132 26.6632 178.903 25.9605 180.408 25.6872C181.488 25.453 182.53 25.1407 183.417 24.7893V26.1557H183.379Z" fill="#1DBF73"/>
<path d="M191.134 12.921H189.166V32.363H192.947V14.7559C192.947 13.7799 192.137 12.921 191.134 12.921Z" fill="#1DBF73"/>
<path d="M197.384 12.921H195.416V32.363H199.197V14.7559C199.197 13.7799 198.348 12.921 197.384 12.921Z" fill="#1DBF73"/>
<path d="M31.4653 0H25.5374V31.5447C25.5639 31.5447 25.5904 31.5447 25.6168 31.5714C26.252 31.7321 26.8871 31.9463 27.5487 32.2141C28.766 32.7229 30.0098 33.3923 31.1477 34.1957C31.1742 34.2225 31.1742 34.2225 31.2007 34.2225L31.2271 34.2492C31.2801 34.276 31.333 34.3296 31.3859 34.3564C31.4124 34.3831 31.4388 34.3831 31.4653 34.4099V0Z" fill="#1DBF73"/>
<path d="M10.8766 30.1528C10.8236 30.2064 10.7442 30.2599 10.7178 30.3135C10.7442 30.3402 10.7707 30.3938 10.8236 30.4474C10.8501 30.4741 10.8501 30.4741 10.8766 30.5009C10.9295 30.5545 10.9559 30.608 11.0089 30.6616C11.0353 30.6884 11.0353 30.7151 11.0618 30.7151C11.1412 30.7955 11.2206 30.8758 11.3264 30.9829C11.5381 31.1971 11.8028 31.4381 12.1468 31.6791V28.7871C11.7763 29.2156 11.3529 29.6708 10.8766 30.1528Z" fill="#1DBF73"/>
<path d="M6.1925 10.7922V18.1562C6.82763 18.424 7.4363 18.7721 8.0185 19.1202C9.12997 19.8165 10.1621 20.6734 11.0354 21.5303C11.1147 21.6106 11.2206 21.7177 11.3 21.7981L12.1468 22.8424V10.7922H6.1925Z" fill="#1DBF73"/>
<path d="M15.6665 5.59668V34.1422C16.5133 34.7581 18.948 35.9363 19.4508 36.0434C19.6096 35.5614 19.7948 35.1062 19.9801 34.651C20.1388 34.2761 20.8798 32.7497 21.5943 31.9999V5.59668H15.6665Z" fill="#1DBF73"/>
<path d="M31.9417 37.6237C29.7452 34.6513 23.4998 32.3216 22.7323 33.6873C22.7323 33.6873 21.9119 34.8923 21.4091 36.4186C20.9857 37.7308 20.5623 39.391 15.2431 36.258C6.74825 31.0898 8.36254 29.7509 9.52694 28.653C10.6913 27.5551 11.4323 26.2965 11.4323 26.2965C12.3056 25.0112 7.59509 20.2714 4.02249 19.4949C0.423434 18.7451 1.52588e-05 27.2873 1.52588e-05 27.2873C0.10587 33.4195 6.08666 38.0789 9.47401 40.2479C11.7499 41.9349 20.033 47.5316 26.6489 44.586C26.6489 44.586 34.1382 40.596 31.9417 37.6237Z" fill="#1DBF73"/>
<path d="M1.03212 26.5909C1.03212 26.5909 1.482 22.5206 2.09067 22.5206C2.69933 22.5206 2.09067 23.9934 1.03212 26.5909Z" fill="#FFFFFE"/>
<path d="M3.1492 21.1284C3.1492 21.3426 2.96395 21.53 2.75224 21.53C2.54053 21.53 2.35529 21.3426 2.35529 21.1284C2.35529 20.9141 2.54053 20.7267 2.75224 20.7267C2.96395 20.7267 3.1492 20.8874 3.1492 21.1284Z" fill="#FFFFFE"/>
<path opacity="0.5" d="M9.18292 37.1958C14.555 40.8376 24.5054 47.7463 30.0363 35.8301C27.2841 33.8217 23.341 32.6435 22.7059 33.6878C22.7059 33.6878 21.8855 34.8928 21.3827 36.4192C20.9593 37.7313 20.5358 39.3916 15.2166 36.2585C8.4684 32.1615 8.09791 30.4477 8.81243 29.4033C7.83327 30.3138 4.34007 33.902 9.18292 37.1958Z" fill="url(#paint0_linear_621_981)"/>
<defs>
<linearGradient id="paint0_linear_621_981" x1="25.8796" y1="33.218" x2="-106.4" y2="68.1687" gradientUnits="userSpaceOnUse">
<stop stop-color="white"/>
<stop offset="1"/>
</linearGradient>
</defs>
</svg>
